<svg width="64" height="34" viewBox="0 0 64 34" fill="none" xmlns="http://www.w3.org/2000/svg">
<path d="M60.8021 1.39832C57.3678 -1.01417 52.6019 -0.226139 50.1559 3.15411L46.4343 8.30398C46.7077 5.69794 45.5933 3.02968 43.2804 1.39832C39.8462 -1.01417 35.0803 -0.226139 32.6343 3.15411L28.9127 8.30398C29.186 5.69794 28.0717 3.02968 25.7588 1.39832C22.3246 -1.01417 17.5587 -0.226139 15.1127 3.15411L1.41775 22.1015C-1.02827 25.4886 -0.229282 30.1892 3.19795 32.6017C6.62518 35.0142 11.3981 34.2261 13.8441 30.8459L17.5657 25.696C16.8087 33.3068 26.733 37.1156 31.3657 30.8459L35.0873 25.696C34.3304 33.3068 44.2546 37.1156 48.8873 30.8459L62.5822 11.9054C65.0283 8.51827 64.2293 3.81772 60.8021 1.40523V1.39832Z" fill="#D9D9D9"/>
</svg>
