<svg width="20" height="20" viewBox="0 0 20 20" fill="none" xmlns="http://www.w3.org/2000/svg">
<g clip-path="url(#clip0_322_3058)">
<path fill-rule="evenodd" clip-rule="evenodd" d="M9.76604 0.676086C9.7972 0.571324 9.89375 0.499023 10.0033 0.499023C10.1128 0.499023 10.2094 0.571324 10.2405 0.676086C10.2405 0.676086 10.6747 2.13156 11.1401 3.69267C11.8817 6.1798 13.8273 8.12534 16.3144 8.86692C17.8755 9.33232 19.331 9.76653 19.331 9.76653C19.4357 9.7977 19.508 9.89425 19.508 10.0038C19.508 10.1133 19.4357 10.2098 19.331 10.241C19.331 10.241 17.8755 10.6752 16.3144 11.1406C13.8273 11.8822 11.8817 13.8278 11.1401 16.3149C10.6747 17.876 10.2405 19.3315 10.2405 19.3315C10.2094 19.4362 10.1128 19.5085 10.0033 19.5085C9.89375 19.5085 9.7972 19.4362 9.76604 19.3315C9.76604 19.3315 9.33182 17.876 8.86643 16.3149C8.12485 13.8278 6.1793 11.8822 3.69218 11.1406C2.13107 10.6752 0.675598 10.241 0.675598 10.241C0.570829 10.2098 0.498535 10.1133 0.498535 10.0038C0.498535 9.89425 0.570829 9.7977 0.675598 9.76653C0.675598 9.76653 2.13107 9.33232 3.69218 8.86692C6.1793 8.12534 8.12485 6.1798 8.86643 3.69267C9.33182 2.13156 9.76604 0.676086 9.76604 0.676086Z" fill="#654EA3"/>
</g>
<defs>
<clipPath id="clip0_322_3058">
<rect width="20" height="20" fill="white"/>
</clipPath>
</defs>
</svg>
